<svg width="55" height="49" viewBox="0 0 55 49" fill="none" xmlns="http://www.w3.org/2000/svg">
<ellipse cx="27.5" cy="24.5" rx="27.5" ry="24.5" fill="#FDE50B"/>
<g clip-path="url(#clip0_106_2927)">
<path d="M42.8333 6.77514C39.9328 5.40933 31.0977 5.62201 28.6164 9.26589C28.5365 9.38633 39.0271 14.9924 39.0406 14.906C39.4027 12.1468 39.5115 10.0718 42.6297 9.1147C44.3927 8.5753 44.2906 7.45869 42.8353 6.77258" fill="#1BA9B6"/>
<path d="M38.5211 13.0789C35.9955 10.9347 28.4228 8.13073 23.5987 8.18775C22.4794 8.20889 21.3748 8.30114 20.3012 8.47603C18.4784 8.77328 16.9284 9.4376 15.6189 10.362C15.5087 10.4242 15.3945 10.4818 15.285 10.5491C12.0828 12.5094 10.3863 15.2058 10.3077 18.3282C10.258 18.4877 10.1646 18.8151 10.1633 18.8196C8.84437 19.6165 4.21112 23.0426 5.11345 25.1201C5.4299 25.853 9.55521 25.4206 10.2446 25.263C11.4566 24.9837 12.3878 24.7697 13.2687 24.8369C14.1502 24.9036 15.8849 25.3757 17.0103 25.4885C21.8042 25.9753 26.3454 25.5487 30.4257 27.4296C32.4547 28.3655 32.9694 31.2016 32.5891 33.1074C31.9589 34.9281 30.7925 36.4835 28.6291 37.242C27.3693 37.684 26.0934 37.5822 24.9055 37.1767C23.3253 35.3624 21.4763 33.9287 19.1704 32.8313C17.3342 31.9575 17.5364 36.4893 21.6893 39.2632C21.7612 39.3106 21.8116 39.3657 21.8714 39.4182C21.9741 40.5271 20.834 41.7975 20.4611 42.7418C19.9988 43.9192 19.6965 47.1749 20.5881 46.8841C22.4834 46.2671 23.9186 45.0333 24.8424 43.4618C25.4303 43.064 25.8374 41.3555 26.51 41.1037C35.2329 37.8256 38.7394 36.939 41.9624 31.0786C45.3682 24.8876 43.9008 17.6414 38.5191 13.077" fill="#34BDCA"/>
<path d="M32.5939 33.1049C31.9637 34.9255 30.7973 36.4809 28.6339 37.2394C27.7436 37.5495 26.848 37.5873 25.9793 37.4432C28.9396 39.4784 33.3155 38.8218 34.9152 35.3438C35.9882 33.0075 35.6583 29.3341 33.6662 27.4091C31.2448 25.0676 27.4715 24.6781 24.1928 24.7357C21.4455 24.7844 18.5598 24.8498 15.8286 25.2956C16.2512 25.377 16.6638 25.4487 17.0158 25.4833C21.8096 25.9702 26.3508 25.5436 30.4311 27.4244C32.4602 28.361 32.9755 31.1971 32.5946 33.1029" fill="#95D6DC"/>
<path d="M29.2009 24.8575C28.529 21.5845 24.0866 21.0803 21.6544 22.4256C21.1491 22.7037 20.4067 26.5064 22.7368 28.7665C23.7607 29.7608 24.788 30.618 25.9752 31.3675L26.0007 31.3918C26.8177 32.0773 28.2522 33.24 29.0873 31.9889C29.6322 31.1759 29.4851 29.7576 29.5099 28.8511C29.5503 27.5321 29.4649 26.1547 29.2009 24.8575Z" fill="#1BA9B6"/>
<path d="M29.2211 26.0003C28.5915 22.9048 24.4508 22.4276 22.1825 23.6998C21.7109 23.9657 21.0161 27.5628 23.1903 29.6993C24.1464 30.6404 25.1079 31.4501 26.2144 32.1606C26.2151 32.1683 26.2265 32.1753 26.2339 32.1817C26.9972 32.83 28.3355 33.93 29.1143 32.7461C29.6208 31.9786 29.4845 30.6365 29.508 29.7781C29.549 28.5301 29.4663 27.229 29.2211 26.0003Z" fill="#34BDCA"/>
<path d="M17.5936 16.7164C16.0255 16.7164 14.7596 17.8407 14.7596 19.2231C14.7596 20.6101 16.0255 21.7305 17.5936 21.7305C19.1631 21.7305 20.4303 20.6094 20.4303 19.2231C20.4303 17.8407 19.1631 16.7164 17.5936 16.7164Z" fill="#25333A"/>
<path d="M18.7836 20.1764C19.4726 20.1764 20.0312 19.6598 20.0312 19.0226C20.0312 18.3854 19.4726 17.8689 18.7836 17.8689C18.0945 17.8689 17.5359 18.3854 17.5359 19.0226C17.5359 19.6598 18.0945 20.1764 18.7836 20.1764Z" fill="white"/>
</g>
<defs>
<clipPath id="clip0_106_2927">
<rect width="43" height="41" fill="white" transform="translate(5 6)"/>
</clipPath>
</defs>
</svg>
